mtllib RTS_Barracks.mtl
o RTS_Barracks
v -1.55000 0.00000 -1.30000
v 1.55000 0.00000 -1.30000
v 1.55000 0.28000 -1.30000
v -1.55000 0.28000 -1.30000
v -1.55000 0.00000 1.30000
v 1.55000 0.00000 1.30000
v 1.55000 0.28000 1.30000
v -1.55000 0.28000 1.30000
v -1.32500 0.14000 -1.02500
v 1.32500 0.14000 -1.02500
v 1.32500 0.96000 -1.02500
v -1.32500 0.96000 -1.02500
v -1.32500 0.14000 1.02500
v 1.32500 0.14000 1.02500
v 1.32500 0.96000 1.02500
v -1.32500 0.96000 1.02500
v -1.05000 0.88000 -0.82500
v 1.05000 0.88000 -0.82500
v 1.05000 1.16000 -0.82500
v -1.05000 1.16000 -0.82500
v -1.05000 0.88000 0.82500
v 1.05000 0.88000 0.82500
v 1.05000 1.16000 0.82500
v -1.05000 1.16000 0.82500
v -0.60000 1.11000 -0.31000
v 0.60000 1.11000 -0.31000
v 0.60000 1.25000 -0.31000
v -0.60000 1.25000 -0.31000
v -0.60000 1.11000 0.31000
v 0.60000 1.11000 0.31000
v 0.60000 1.25000 0.31000
v -0.60000 1.25000 0.31000
v -0.42500 0.23000 -1.15000
v 0.42500 0.23000 -1.15000
v 0.42500 0.81000 -1.15000
v -0.42500 0.81000 -1.15000
v -0.42500 0.23000 -1.05000
v 0.42500 0.23000 -1.05000
v 0.42500 0.81000 -1.05000
v -0.42500 0.81000 -1.05000
v -0.35000 0.74000 -1.20000
v 0.35000 0.74000 -1.20000
v 0.35000 0.90000 -1.20000
v -0.35000 0.90000 -1.20000
v -0.35000 0.74000 -1.12000
v 0.35000 0.74000 -1.12000
v 0.35000 0.90000 -1.12000
v -0.35000 0.90000 -1.12000
v -0.52500 0.22000 -1.63000
v 0.52500 0.22000 -1.63000
v 0.52500 0.34000 -1.63000
v -0.52500 0.34000 -1.63000
v -0.52500 0.22000 -1.21000
v 0.52500 0.22000 -1.21000
v 0.52500 0.34000 -1.21000
v -0.52500 0.34000 -1.21000
v -0.53000 1.14000 0.62000
v -0.53000 1.50000 0.62000
v -0.57202 1.14000 0.74931
v -0.57202 1.50000 0.74931
v -0.68202 1.14000 0.82923
v -0.68202 1.50000 0.82923
v -0.81798 1.14000 0.82923
v -0.81798 1.50000 0.82923
v -0.92798 1.14000 0.74931
v -0.92798 1.50000 0.74931
v -0.97000 1.14000 0.62000
v -0.97000 1.50000 0.62000
v -0.92798 1.14000 0.49069
v -0.92798 1.50000 0.49069
v -0.81798 1.14000 0.41077
v -0.81798 1.50000 0.41077
v -0.68202 1.14000 0.41077
v -0.68202 1.50000 0.41077
v -0.57202 1.14000 0.49069
v -0.57202 1.50000 0.49069
v -0.75000 1.50000 0.62000
v -0.75000 1.14000 0.62000
v -0.58000 1.48000 0.62000
v -0.58000 1.56000 0.62000
v -0.61247 1.48000 0.71992
v -0.61247 1.56000 0.71992
v -0.69747 1.48000 0.78168
v -0.69747 1.56000 0.78168
v -0.80253 1.48000 0.78168
v -0.80253 1.56000 0.78168
v -0.88753 1.48000 0.71992
v -0.88753 1.56000 0.71992
v -0.92000 1.48000 0.62000
v -0.92000 1.56000 0.62000
v -0.88753 1.48000 0.52008
v -0.88753 1.56000 0.52008
v -0.80253 1.48000 0.45832
v -0.80253 1.56000 0.45832
v -0.69747 1.48000 0.45832
v -0.69747 1.56000 0.45832
v -0.61247 1.48000 0.52008
v -0.61247 1.56000 0.52008
v -0.75000 1.56000 0.62000
v -0.75000 1.48000 0.62000
v 0.97000 1.14000 0.62000
v 0.97000 1.50000 0.62000
v 0.92798 1.14000 0.74931
v 0.92798 1.50000 0.74931
v 0.81798 1.14000 0.82923
v 0.81798 1.50000 0.82923
v 0.68202 1.14000 0.82923
v 0.68202 1.50000 0.82923
v 0.57202 1.14000 0.74931
v 0.57202 1.50000 0.74931
v 0.53000 1.14000 0.62000
v 0.53000 1.50000 0.62000
v 0.57202 1.14000 0.49069
v 0.57202 1.50000 0.49069
v 0.68202 1.14000 0.41077
v 0.68202 1.50000 0.41077
v 0.81798 1.14000 0.41077
v 0.81798 1.50000 0.41077
v 0.92798 1.14000 0.49069
v 0.92798 1.50000 0.49069
v 0.75000 1.50000 0.62000
v 0.75000 1.14000 0.62000
v 0.92000 1.48000 0.62000
v 0.92000 1.56000 0.62000
v 0.88753 1.48000 0.71992
v 0.88753 1.56000 0.71992
v 0.80253 1.48000 0.78168
v 0.80253 1.56000 0.78168
v 0.69747 1.48000 0.78168
v 0.69747 1.56000 0.78168
v 0.61247 1.48000 0.71992
v 0.61247 1.56000 0.71992
v 0.58000 1.48000 0.62000
v 0.58000 1.56000 0.62000
v 0.61247 1.48000 0.52008
v 0.61247 1.56000 0.52008
v 0.69747 1.48000 0.45832
v 0.69747 1.56000 0.45832
v 0.80253 1.48000 0.45832
v 0.80253 1.56000 0.45832
v 0.88753 1.48000 0.52008
v 0.88753 1.56000 0.52008
v 0.75000 1.56000 0.62000
v 0.75000 1.48000 0.62000
v -1.46000 0.39000 -0.45000
v -1.38000 0.39000 -0.45000
v -1.38000 0.81000 -0.45000
v -1.46000 0.81000 -0.45000
v -1.46000 0.39000 0.45000
v -1.38000 0.39000 0.45000
v -1.38000 0.81000 0.45000
v -1.46000 0.81000 0.45000
v 1.38000 0.39000 -0.45000
v 1.46000 0.39000 -0.45000
v 1.46000 0.81000 -0.45000
v 1.38000 0.81000 -0.45000
v 1.38000 0.39000 0.45000
v 1.46000 0.39000 0.45000
v 1.46000 0.81000 0.45000
v 1.38000 0.81000 0.45000
v -1.51500 0.50000 -0.75000
v -1.44500 0.50000 -0.75000
v -1.44500 0.70000 -0.75000
v -1.51500 0.70000 -0.75000
v -1.51500 0.50000 -0.37000
v -1.44500 0.50000 -0.37000
v -1.44500 0.70000 -0.37000
v -1.51500 0.70000 -0.37000
v 1.44500 0.50000 -0.75000
v 1.51500 0.50000 -0.75000
v 1.51500 0.70000 -0.75000
v 1.44500 0.70000 -0.75000
v 1.44500 0.50000 -0.37000
v 1.51500 0.50000 -0.37000
v 1.51500 0.70000 -0.37000
v 1.44500 0.70000 -0.37000
usemtl mat_dark
f 1 2 3 4
f 5 8 7 6
f 1 5 6 2
f 4 3 7 8
f 1 4 8 5
f 2 6 7 3
usemtl mat_gray
f 9 10 11 12
f 13 16 15 14
f 9 13 14 10
f 12 11 15 16
f 9 12 16 13
f 10 14 15 11
usemtl mat_lightgray
f 17 18 19 20
f 21 24 23 22
f 17 21 22 18
f 20 19 23 24
f 17 20 24 21
f 18 22 23 19
usemtl mat_blue
f 25 26 27 28
f 29 32 31 30
f 25 29 30 26
f 28 27 31 32
f 25 28 32 29
f 26 30 31 27
f 33 34 35 36
f 37 40 39 38
f 33 37 38 34
f 36 35 39 40
f 33 36 40 37
f 34 38 39 35
usemtl mat_cyan
f 41 42 43 44
f 45 48 47 46
f 41 45 46 42
f 44 43 47 48
f 41 44 48 45
f 42 46 47 43
usemtl mat_dark
f 49 50 51 52
f 53 56 55 54
f 49 53 54 50
f 52 51 55 56
f 49 52 56 53
f 50 54 55 51
f 57 59 60 58
f 77 58 60
f 78 59 57
f 59 61 62 60
f 77 60 62
f 78 61 59
f 61 63 64 62
f 77 62 64
f 78 63 61
f 63 65 66 64
f 77 64 66
f 78 65 63
f 65 67 68 66
f 77 66 68
f 78 67 65
f 67 69 70 68
f 77 68 70
f 78 69 67
f 69 71 72 70
f 77 70 72
f 78 71 69
f 71 73 74 72
f 77 72 74
f 78 73 71
f 73 75 76 74
f 77 74 76
f 78 75 73
f 75 57 58 76
f 77 76 58
f 78 57 75
usemtl mat_cyan
f 79 81 82 80
f 99 80 82
f 100 81 79
f 81 83 84 82
f 99 82 84
f 100 83 81
f 83 85 86 84
f 99 84 86
f 100 85 83
f 85 87 88 86
f 99 86 88
f 100 87 85
f 87 89 90 88
f 99 88 90
f 100 89 87
f 89 91 92 90
f 99 90 92
f 100 91 89
f 91 93 94 92
f 99 92 94
f 100 93 91
f 93 95 96 94
f 99 94 96
f 100 95 93
f 95 97 98 96
f 99 96 98
f 100 97 95
f 97 79 80 98
f 99 98 80
f 100 79 97
usemtl mat_dark
f 101 103 104 102
f 121 102 104
f 122 103 101
f 103 105 106 104
f 121 104 106
f 122 105 103
f 105 107 108 106
f 121 106 108
f 122 107 105
f 107 109 110 108
f 121 108 110
f 122 109 107
f 109 111 112 110
f 121 110 112
f 122 111 109
f 111 113 114 112
f 121 112 114
f 122 113 111
f 113 115 116 114
f 121 114 116
f 122 115 113
f 115 117 118 116
f 121 116 118
f 122 117 115
f 117 119 120 118
f 121 118 120
f 122 119 117
f 119 101 102 120
f 121 120 102
f 122 101 119
usemtl mat_cyan
f 123 125 126 124
f 143 124 126
f 144 125 123
f 125 127 128 126
f 143 126 128
f 144 127 125
f 127 129 130 128
f 143 128 130
f 144 129 127
f 129 131 132 130
f 143 130 132
f 144 131 129
f 131 133 134 132
f 143 132 134
f 144 133 131
f 133 135 136 134
f 143 134 136
f 144 135 133
f 135 137 138 136
f 143 136 138
f 144 137 135
f 137 139 140 138
f 143 138 140
f 144 139 137
f 139 141 142 140
f 143 140 142
f 144 141 139
f 141 123 124 142
f 143 142 124
f 144 123 141
usemtl mat_dark
f 145 146 147 148
f 149 152 151 150
f 145 149 150 146
f 148 147 151 152
f 145 148 152 149
f 146 150 151 147
f 153 154 155 156
f 157 160 159 158
f 153 157 158 154
f 156 155 159 160
f 153 156 160 157
f 154 158 159 155
usemtl mat_cyan
f 161 162 163 164
f 165 168 167 166
f 161 165 166 162
f 164 163 167 168
f 161 164 168 165
f 162 166 167 163
f 169 170 171 172
f 173 176 175 174
f 169 173 174 170
f 172 171 175 176
f 169 172 176 173
f 170 174 175 171
