mtllib RTS_CommandCenter.mtl
o RTS_CommandCenter
v -1.90000 0.00000 -1.90000
v 1.90000 0.00000 -1.90000
v 1.90000 0.30000 -1.90000
v -1.90000 0.30000 -1.90000
v -1.90000 0.00000 1.90000
v 1.90000 0.00000 1.90000
v 1.90000 0.30000 1.90000
v -1.90000 0.30000 1.90000
v -1.55000 0.15000 -1.55000
v 1.55000 0.15000 -1.55000
v 1.55000 0.95000 -1.55000
v -1.55000 0.95000 -1.55000
v -1.55000 0.15000 1.55000
v 1.55000 0.15000 1.55000
v 1.55000 0.95000 1.55000
v -1.55000 0.95000 1.55000
v -1.22500 0.75500 -1.22500
v 1.22500 0.75500 -1.22500
v 1.22500 1.30500 -1.22500
v -1.22500 1.30500 -1.22500
v -1.22500 0.75500 1.22500
v 1.22500 0.75500 1.22500
v 1.22500 1.30500 1.22500
v -1.22500 1.30500 1.22500
v 0.82000 1.30000 0.00000
v 0.82000 1.54000 0.00000
v 0.75758 1.30000 0.31380
v 0.75758 1.54000 0.31380
v 0.57983 1.30000 0.57983
v 0.57983 1.54000 0.57983
v 0.31380 1.30000 0.75758
v 0.31380 1.54000 0.75758
v 0.00000 1.30000 0.82000
v 0.00000 1.54000 0.82000
v -0.31380 1.30000 0.75758
v -0.31380 1.54000 0.75758
v -0.57983 1.30000 0.57983
v -0.57983 1.54000 0.57983
v -0.75758 1.30000 0.31380
v -0.75758 1.54000 0.31380
v -0.82000 1.30000 0.00000
v -0.82000 1.54000 0.00000
v -0.75758 1.30000 -0.31380
v -0.75758 1.54000 -0.31380
v -0.57983 1.30000 -0.57983
v -0.57983 1.54000 -0.57983
v -0.31380 1.30000 -0.75758
v -0.31380 1.54000 -0.75758
v -0.00000 1.30000 -0.82000
v -0.00000 1.54000 -0.82000
v 0.31380 1.30000 -0.75758
v 0.31380 1.54000 -0.75758
v 0.57983 1.30000 -0.57983
v 0.57983 1.54000 -0.57983
v 0.75758 1.30000 -0.31380
v 0.75758 1.54000 -0.31380
v 0.00000 1.54000 0.00000
v 0.00000 1.30000 0.00000
v 0.52000 1.49000 0.00000
v 0.52000 1.67000 0.00000
v 0.48042 1.49000 0.19900
v 0.48042 1.67000 0.19900
v 0.36770 1.49000 0.36770
v 0.36770 1.67000 0.36770
v 0.19900 1.49000 0.48042
v 0.19900 1.67000 0.48042
v 0.00000 1.49000 0.52000
v 0.00000 1.67000 0.52000
v -0.19900 1.49000 0.48042
v -0.19900 1.67000 0.48042
v -0.36770 1.49000 0.36770
v -0.36770 1.67000 0.36770
v -0.48042 1.49000 0.19900
v -0.48042 1.67000 0.19900
v -0.52000 1.49000 0.00000
v -0.52000 1.67000 0.00000
v -0.48042 1.49000 -0.19900
v -0.48042 1.67000 -0.19900
v -0.36770 1.49000 -0.36770
v -0.36770 1.67000 -0.36770
v -0.19900 1.49000 -0.48042
v -0.19900 1.67000 -0.48042
v -0.00000 1.49000 -0.52000
v -0.00000 1.67000 -0.52000
v 0.19900 1.49000 -0.48042
v 0.19900 1.67000 -0.48042
v 0.36770 1.49000 -0.36770
v 0.36770 1.67000 -0.36770
v 0.48042 1.49000 -0.19900
v 0.48042 1.67000 -0.19900
v 0.00000 1.67000 0.00000
v 0.00000 1.49000 0.00000
v -0.47500 0.19000 -1.67000
v 0.47500 0.19000 -1.67000
v 0.47500 0.91000 -1.67000
v -0.47500 0.91000 -1.67000
v -0.47500 0.19000 -1.57000
v 0.47500 0.19000 -1.57000
v 0.47500 0.91000 -1.57000
v -0.47500 0.91000 -1.57000
v -0.57500 0.29000 -2.19500
v 0.57500 0.29000 -2.19500
v 0.57500 0.41000 -2.19500
v -0.57500 0.41000 -2.19500
v -0.57500 0.29000 -1.64500
v 0.57500 0.29000 -1.64500
v 0.57500 0.41000 -1.64500
v -0.57500 0.41000 -1.64500
v -1.72500 0.28000 -1.32500
v -1.17500 0.28000 -1.32500
v -1.17500 0.84000 -1.32500
v -1.72500 0.84000 -1.32500
v -1.72500 0.28000 -0.77500
v -1.17500 0.28000 -0.77500
v -1.17500 0.84000 -0.77500
v -1.72500 0.84000 -0.77500
v 1.17500 0.28000 -1.32500
v 1.72500 0.28000 -1.32500
v 1.72500 0.84000 -1.32500
v 1.17500 0.84000 -1.32500
v 1.17500 0.28000 -0.77500
v 1.72500 0.28000 -0.77500
v 1.72500 0.84000 -0.77500
v 1.17500 0.84000 -0.77500
v -1.80000 0.34000 0.50000
v -1.30000 0.34000 0.50000
v -1.30000 0.96000 0.50000
v -1.80000 0.96000 0.50000
v -1.80000 0.34000 1.20000
v -1.30000 0.34000 1.20000
v -1.30000 0.96000 1.20000
v -1.80000 0.96000 1.20000
v 1.30000 0.34000 0.50000
v 1.80000 0.34000 0.50000
v 1.80000 0.96000 0.50000
v 1.30000 0.96000 0.50000
v 1.30000 0.34000 1.20000
v 1.80000 0.34000 1.20000
v 1.80000 0.96000 1.20000
v 1.30000 0.96000 1.20000
v -1.76000 0.63000 0.68000
v -1.68000 0.63000 0.68000
v -1.68000 0.85000 0.68000
v -1.76000 0.85000 0.68000
v -1.76000 0.63000 1.02000
v -1.68000 0.63000 1.02000
v -1.68000 0.85000 1.02000
v -1.76000 0.85000 1.02000
v 1.68000 0.63000 0.68000
v 1.76000 0.63000 0.68000
v 1.76000 0.85000 0.68000
v 1.68000 0.85000 0.68000
v 1.68000 0.63000 1.02000
v 1.76000 0.63000 1.02000
v 1.76000 0.85000 1.02000
v 1.68000 0.85000 1.02000
v -1.84000 0.17500 -1.84000
v -1.26000 0.17500 -1.84000
v -1.26000 0.72500 -1.84000
v -1.84000 0.72500 -1.84000
v -1.84000 0.17500 -1.26000
v -1.26000 0.17500 -1.26000
v -1.26000 0.72500 -1.26000
v -1.84000 0.72500 -1.26000
v -1.74000 0.72000 -1.74000
v -1.36000 0.72000 -1.74000
v -1.36000 0.84000 -1.74000
v -1.74000 0.84000 -1.74000
v -1.74000 0.72000 -1.36000
v -1.36000 0.72000 -1.36000
v -1.36000 0.84000 -1.36000
v -1.74000 0.84000 -1.36000
v -1.84000 0.17500 1.26000
v -1.26000 0.17500 1.26000
v -1.26000 0.72500 1.26000
v -1.84000 0.72500 1.26000
v -1.84000 0.17500 1.84000
v -1.26000 0.17500 1.84000
v -1.26000 0.72500 1.84000
v -1.84000 0.72500 1.84000
v -1.74000 0.72000 1.36000
v -1.36000 0.72000 1.36000
v -1.36000 0.84000 1.36000
v -1.74000 0.84000 1.36000
v -1.74000 0.72000 1.74000
v -1.36000 0.72000 1.74000
v -1.36000 0.84000 1.74000
v -1.74000 0.84000 1.74000
v 1.26000 0.17500 -1.84000
v 1.84000 0.17500 -1.84000
v 1.84000 0.72500 -1.84000
v 1.26000 0.72500 -1.84000
v 1.26000 0.17500 -1.26000
v 1.84000 0.17500 -1.26000
v 1.84000 0.72500 -1.26000
v 1.26000 0.72500 -1.26000
v 1.36000 0.72000 -1.74000
v 1.74000 0.72000 -1.74000
v 1.74000 0.84000 -1.74000
v 1.36000 0.84000 -1.74000
v 1.36000 0.72000 -1.36000
v 1.74000 0.72000 -1.36000
v 1.74000 0.84000 -1.36000
v 1.36000 0.84000 -1.36000
v 1.26000 0.17500 1.26000
v 1.84000 0.17500 1.26000
v 1.84000 0.72500 1.26000
v 1.26000 0.72500 1.26000
v 1.26000 0.17500 1.84000
v 1.84000 0.17500 1.84000
v 1.84000 0.72500 1.84000
v 1.26000 0.72500 1.84000
v 1.36000 0.72000 1.36000
v 1.74000 0.72000 1.36000
v 1.74000 0.84000 1.36000
v 1.36000 0.84000 1.36000
v 1.36000 0.72000 1.74000
v 1.74000 0.72000 1.74000
v 1.74000 0.84000 1.74000
v 1.36000 0.84000 1.74000
usemtl mat_dark
f 1 2 3 4
f 5 8 7 6
f 1 5 6 2
f 4 3 7 8
f 1 4 8 5
f 2 6 7 3
usemtl mat_deepblue
f 9 10 11 12
f 13 16 15 14
f 9 13 14 10
f 12 11 15 16
f 9 12 16 13
f 10 14 15 11
usemtl mat_blue
f 17 18 19 20
f 21 24 23 22
f 17 21 22 18
f 20 19 23 24
f 17 20 24 21
f 18 22 23 19
usemtl mat_lightgray
f 25 27 28 26
f 57 26 28
f 58 27 25
f 27 29 30 28
f 57 28 30
f 58 29 27
f 29 31 32 30
f 57 30 32
f 58 31 29
f 31 33 34 32
f 57 32 34
f 58 33 31
f 33 35 36 34
f 57 34 36
f 58 35 33
f 35 37 38 36
f 57 36 38
f 58 37 35
f 37 39 40 38
f 57 38 40
f 58 39 37
f 39 41 42 40
f 57 40 42
f 58 41 39
f 41 43 44 42
f 57 42 44
f 58 43 41
f 43 45 46 44
f 57 44 46
f 58 45 43
f 45 47 48 46
f 57 46 48
f 58 47 45
f 47 49 50 48
f 57 48 50
f 58 49 47
f 49 51 52 50
f 57 50 52
f 58 51 49
f 51 53 54 52
f 57 52 54
f 58 53 51
f 53 55 56 54
f 57 54 56
f 58 55 53
f 55 25 26 56
f 57 56 26
f 58 25 55
usemtl mat_cyan
f 59 61 62 60
f 91 60 62
f 92 61 59
f 61 63 64 62
f 91 62 64
f 92 63 61
f 63 65 66 64
f 91 64 66
f 92 65 63
f 65 67 68 66
f 91 66 68
f 92 67 65
f 67 69 70 68
f 91 68 70
f 92 69 67
f 69 71 72 70
f 91 70 72
f 92 71 69
f 71 73 74 72
f 91 72 74
f 92 73 71
f 73 75 76 74
f 91 74 76
f 92 75 73
f 75 77 78 76
f 91 76 78
f 92 77 75
f 77 79 80 78
f 91 78 80
f 92 79 77
f 79 81 82 80
f 91 80 82
f 92 81 79
f 81 83 84 82
f 91 82 84
f 92 83 81
f 83 85 86 84
f 91 84 86
f 92 85 83
f 85 87 88 86
f 91 86 88
f 92 87 85
f 87 89 90 88
f 91 88 90
f 92 89 87
f 89 59 60 90
f 91 90 60
f 92 59 89
f 93 94 95 96
f 97 100 99 98
f 93 97 98 94
f 96 95 99 100
f 93 96 100 97
f 94 98 99 95
usemtl mat_blue
f 101 102 103 104
f 105 108 107 106
f 101 105 106 102
f 104 103 107 108
f 101 104 108 105
f 102 106 107 103
usemtl mat_gray
f 109 110 111 112
f 113 116 115 114
f 109 113 114 110
f 112 111 115 116
f 109 112 116 113
f 110 114 115 111
f 117 118 119 120
f 121 124 123 122
f 117 121 122 118
f 120 119 123 124
f 117 120 124 121
f 118 122 123 119
f 125 126 127 128
f 129 132 131 130
f 125 129 130 126
f 128 127 131 132
f 125 128 132 129
f 126 130 131 127
f 133 134 135 136
f 137 140 139 138
f 133 137 138 134
f 136 135 139 140
f 133 136 140 137
f 134 138 139 135
usemtl mat_cyan
f 141 142 143 144
f 145 148 147 146
f 141 145 146 142
f 144 143 147 148
f 141 144 148 145
f 142 146 147 143
f 149 150 151 152
f 153 156 155 154
f 149 153 154 150
f 152 151 155 156
f 149 152 156 153
f 150 154 155 151
usemtl mat_gray
f 157 158 159 160
f 161 164 163 162
f 157 161 162 158
f 160 159 163 164
f 157 160 164 161
f 158 162 163 159
usemtl mat_dark
f 165 166 167 168
f 169 172 171 170
f 165 169 170 166
f 168 167 171 172
f 165 168 172 169
f 166 170 171 167
usemtl mat_gray
f 173 174 175 176
f 177 180 179 178
f 173 177 178 174
f 176 175 179 180
f 173 176 180 177
f 174 178 179 175
usemtl mat_dark
f 181 182 183 184
f 185 188 187 186
f 181 185 186 182
f 184 183 187 188
f 181 184 188 185
f 182 186 187 183
usemtl mat_gray
f 189 190 191 192
f 193 196 195 194
f 189 193 194 190
f 192 191 195 196
f 189 192 196 193
f 190 194 195 191
usemtl mat_dark
f 197 198 199 200
f 201 204 203 202
f 197 201 202 198
f 200 199 203 204
f 197 200 204 201
f 198 202 203 199
usemtl mat_gray
f 205 206 207 208
f 209 212 211 210
f 205 209 210 206
f 208 207 211 212
f 205 208 212 209
f 206 210 211 207
usemtl mat_dark
f 213 214 215 216
f 217 220 219 218
f 213 217 218 214
f 216 215 219 220
f 213 216 220 217
f 214 218 219 215
