mtllib RTS_Worker.mtl
o RTS_Worker
v -0.34000 0.00000 -0.19000
v -0.10000 0.00000 -0.19000
v -0.10000 0.24000 -0.19000
v -0.34000 0.24000 -0.19000
v -0.34000 0.00000 0.15000
v -0.10000 0.00000 0.15000
v -0.10000 0.24000 0.15000
v -0.34000 0.24000 0.15000
v 0.10000 0.00000 -0.19000
v 0.34000 0.00000 -0.19000
v 0.34000 0.24000 -0.19000
v 0.10000 0.24000 -0.19000
v 0.10000 0.00000 0.15000
v 0.34000 0.00000 0.15000
v 0.34000 0.24000 0.15000
v 0.10000 0.24000 0.15000
v -0.31000 0.22000 -0.11000
v -0.13000 0.22000 -0.11000
v -0.13000 0.62000 -0.11000
v -0.31000 0.62000 -0.11000
v -0.31000 0.22000 0.11000
v -0.13000 0.22000 0.11000
v -0.13000 0.62000 0.11000
v -0.31000 0.62000 0.11000
v 0.13000 0.22000 -0.11000
v 0.31000 0.22000 -0.11000
v 0.31000 0.62000 -0.11000
v 0.13000 0.62000 -0.11000
v 0.13000 0.22000 0.11000
v 0.31000 0.22000 0.11000
v 0.31000 0.62000 0.11000
v 0.13000 0.62000 0.11000
v -0.35000 0.49500 -0.24000
v 0.35000 0.49500 -0.24000
v 0.35000 1.14500 -0.24000
v -0.35000 1.14500 -0.24000
v -0.35000 0.49500 0.24000
v 0.35000 0.49500 0.24000
v 0.35000 1.14500 0.24000
v -0.35000 1.14500 0.24000
v -0.21000 0.87000 -0.29500
v 0.21000 0.87000 -0.29500
v 0.21000 1.05000 -0.29500
v -0.21000 1.05000 -0.29500
v -0.21000 0.87000 -0.24500
v 0.21000 0.87000 -0.24500
v 0.21000 1.05000 -0.24500
v -0.21000 1.05000 -0.24500
v 0.40569 1.11000 0.10870
v 0.40569 1.53000 0.10870
v 0.29698 1.11000 0.29698
v 0.29698 1.53000 0.29698
v 0.10870 1.11000 0.40569
v 0.10870 1.53000 0.40569
v -0.10870 1.11000 0.40569
v -0.10870 1.53000 0.40569
v -0.29698 1.11000 0.29698
v -0.29698 1.53000 0.29698
v -0.40569 1.11000 0.10870
v -0.40569 1.53000 0.10870
v -0.40569 1.11000 -0.10870
v -0.40569 1.53000 -0.10870
v -0.29698 1.11000 -0.29698
v -0.29698 1.53000 -0.29698
v -0.10870 1.11000 -0.40569
v -0.10870 1.53000 -0.40569
v 0.10870 1.11000 -0.40569
v 0.10870 1.53000 -0.40569
v 0.29698 1.11000 -0.29698
v 0.29698 1.53000 -0.29698
v 0.40569 1.11000 -0.10870
v 0.40569 1.53000 -0.10870
v 0.00000 1.53000 0.00000
v 0.00000 1.11000 0.00000
v -0.29000 1.23000 -0.42500
v 0.29000 1.23000 -0.42500
v 0.29000 1.41000 -0.42500
v -0.29000 1.41000 -0.42500
v -0.29000 1.23000 -0.37500
v 0.29000 1.23000 -0.37500
v 0.29000 1.41000 -0.37500
v -0.29000 1.41000 -0.37500
v -0.34000 1.19000 -0.47000
v 0.34000 1.19000 -0.47000
v 0.34000 1.45000 -0.47000
v -0.34000 1.45000 -0.47000
v -0.34000 1.19000 -0.43000
v 0.34000 1.19000 -0.43000
v 0.34000 1.45000 -0.43000
v -0.34000 1.45000 -0.43000
v -0.31000 0.67000 0.24000
v 0.31000 0.67000 0.24000
v 0.31000 1.39000 0.24000
v -0.31000 1.39000 0.24000
v -0.31000 0.67000 0.52000
v 0.31000 0.67000 0.52000
v 0.31000 1.39000 0.52000
v -0.31000 1.39000 0.52000
v -0.20000 1.16000 0.51000
v 0.20000 1.16000 0.51000
v 0.20000 1.34000 0.51000
v -0.20000 1.34000 0.51000
v -0.20000 1.16000 0.57000
v 0.20000 1.16000 0.57000
v 0.20000 1.34000 0.57000
v -0.20000 1.34000 0.57000
v -0.63650 0.61000 -0.11729
v -0.46531 0.61000 -0.17292
v -0.46531 1.11000 -0.17292
v -0.63650 1.11000 -0.11729
v -0.57469 0.61000 0.07292
v -0.40350 0.61000 0.01729
v -0.40350 1.11000 0.01729
v -0.57469 1.11000 0.07292
v 0.46531 0.61000 -0.17292
v 0.63650 0.61000 -0.11729
v 0.63650 1.11000 -0.11729
v 0.46531 1.11000 -0.17292
v 0.40350 0.61000 0.01729
v 0.57469 0.61000 0.07292
v 0.57469 1.11000 0.07292
v 0.40350 1.11000 0.01729
v -0.75000 0.55000 -0.19000
v -0.53000 0.55000 -0.19000
v -0.53000 0.73000 -0.19000
v -0.75000 0.73000 -0.19000
v -0.75000 0.55000 0.03000
v -0.53000 0.55000 0.03000
v -0.53000 0.73000 0.03000
v -0.75000 0.73000 0.03000
v 0.53000 0.55000 -0.19000
v 0.75000 0.55000 -0.19000
v 0.75000 0.73000 -0.19000
v 0.53000 0.73000 -0.19000
v 0.53000 0.55000 0.03000
v 0.75000 0.55000 0.03000
v 0.75000 0.73000 0.03000
v 0.53000 0.73000 0.03000
v -0.87127 0.41000 -0.18391
v -0.79609 0.41000 -0.21127
v -0.79609 1.03000 -0.21127
v -0.87127 1.03000 -0.18391
v -0.84391 0.41000 -0.10873
v -0.76873 0.41000 -0.13609
v -0.76873 1.03000 -0.13609
v -0.84391 1.03000 -0.10873
v -1.00524 0.99000 -0.18970
v -0.74212 0.99000 -0.28547
v -0.74212 1.09000 -0.28547
v -1.00524 1.09000 -0.18970
v -0.97788 0.99000 -0.11453
v -0.71476 0.99000 -0.21030
v -0.71476 1.09000 -0.21030
v -0.97788 1.09000 -0.11453
usemtl mat_dark
f 1 2 3 4
f 5 8 7 6
f 1 5 6 2
f 4 3 7 8
f 1 4 8 5
f 2 6 7 3
f 9 10 11 12
f 13 16 15 14
f 9 13 14 10
f 12 11 15 16
f 9 12 16 13
f 10 14 15 11
usemtl mat_purple
f 17 18 19 20
f 21 24 23 22
f 17 21 22 18
f 20 19 23 24
f 17 20 24 21
f 18 22 23 19
f 25 26 27 28
f 29 32 31 30
f 25 29 30 26
f 28 27 31 32
f 25 28 32 29
f 26 30 31 27
f 33 34 35 36
f 37 40 39 38
f 33 37 38 34
f 36 35 39 40
f 33 36 40 37
f 34 38 39 35
usemtl mat_magenta
f 41 42 43 44
f 45 48 47 46
f 41 45 46 42
f 44 43 47 48
f 41 44 48 45
f 42 46 47 43
usemtl mat_purple
f 49 51 52 50
f 73 50 52
f 74 51 49
f 51 53 54 52
f 73 52 54
f 74 53 51
f 53 55 56 54
f 73 54 56
f 74 55 53
f 55 57 58 56
f 73 56 58
f 74 57 55
f 57 59 60 58
f 73 58 60
f 74 59 57
f 59 61 62 60
f 73 60 62
f 74 61 59
f 61 63 64 62
f 73 62 64
f 74 63 61
f 63 65 66 64
f 73 64 66
f 74 65 63
f 65 67 68 66
f 73 66 68
f 74 67 65
f 67 69 70 68
f 73 68 70
f 74 69 67
f 69 71 72 70
f 73 70 72
f 74 71 69
f 71 49 50 72
f 73 72 50
f 74 49 71
usemtl mat_cyan
f 75 76 77 78
f 79 82 81 80
f 75 79 80 76
f 78 77 81 82
f 75 78 82 79
f 76 80 81 77
usemtl mat_lightgray
f 83 84 85 86
f 87 90 89 88
f 83 87 88 84
f 86 85 89 90
f 83 86 90 87
f 84 88 89 85
usemtl mat_purple
f 91 92 93 94
f 95 98 97 96
f 91 95 96 92
f 94 93 97 98
f 91 94 98 95
f 92 96 97 93
usemtl mat_magenta
f 99 100 101 102
f 103 106 105 104
f 99 103 104 100
f 102 101 105 106
f 99 102 106 103
f 100 104 105 101
usemtl mat_purple
f 107 108 109 110
f 111 114 113 112
f 107 111 112 108
f 110 109 113 114
f 107 110 114 111
f 108 112 113 109
f 115 116 117 118
f 119 122 121 120
f 115 119 120 116
f 118 117 121 122
f 115 118 122 119
f 116 120 121 117
usemtl mat_dark
f 123 124 125 126
f 127 130 129 128
f 123 127 128 124
f 126 125 129 130
f 123 126 130 127
f 124 128 129 125
f 131 132 133 134
f 135 138 137 136
f 131 135 136 132
f 134 133 137 138
f 131 134 138 135
f 132 136 137 133
usemtl mat_lightgray
f 139 140 141 142
f 143 146 145 144
f 139 143 144 140
f 142 141 145 146
f 139 142 146 143
f 140 144 145 141
f 147 148 149 150
f 151 154 153 152
f 147 151 152 148
f 150 149 153 154
f 147 150 154 151
f 148 152 153 149
