mtllib RTS_Mineral.mtl
o RTS_Mineral
v -0.85029 0.00000 -0.77589
v 1.03122 0.00000 -0.51146
v 1.03122 0.24000 -0.51146
v -0.85029 0.24000 -0.77589
v -1.03122 0.00000 0.51146
v 0.85029 0.00000 0.77589
v 0.85029 0.24000 0.77589
v -1.03122 0.24000 0.51146
v -0.76371 0.04000 -0.02192
v -0.27808 0.04000 0.23629
v -0.27808 0.36000 0.23629
v -0.76371 0.36000 -0.02192
v -1.02192 0.04000 0.46371
v -0.53629 0.04000 0.72192
v -0.53629 0.36000 0.72192
v -1.02192 0.36000 0.46371
v 0.39348 0.04000 0.10344
v 0.91656 0.04000 -0.06652
v 0.91656 0.36000 -0.06652
v 0.39348 0.36000 0.10344
v 0.56344 0.04000 0.62652
v 1.08652 0.04000 0.45656
v 1.08652 0.36000 0.45656
v 0.56344 0.36000 0.62652
v -0.30822 0.04500 -0.81759
v 0.38115 0.04500 -0.69603
v 0.38115 0.39500 -0.69603
v -0.30822 0.39500 -0.81759
v -0.38115 0.04500 -0.40397
v 0.30822 0.04500 -0.28241
v 0.30822 0.39500 -0.28241
v -0.38115 0.39500 -0.40397
v 0.31343 0.24000 0.03145
v 0.41790 0.93750 0.04193
v 0.12948 0.24000 0.28716
v 0.17264 0.93750 0.38288
v -0.18395 0.24000 0.25571
v -0.24526 0.93750 0.34095
v -0.31343 0.24000 -0.03145
v -0.41790 0.93750 -0.04193
v -0.12948 0.24000 -0.28716
v -0.17264 0.93750 -0.38288
v 0.18395 0.24000 -0.25571
v 0.24526 0.93750 -0.34095
v 0.00000 1.79000 0.00000
v 0.00000 0.24000 0.00000
v -0.43144 0.22000 0.15164
v -0.38192 0.63400 0.18551
v -0.59374 0.22000 0.22947
v -0.59832 0.63400 0.28930
v -0.74230 0.22000 0.12784
v -0.79640 0.63400 0.15379
v -0.72856 0.22000 -0.05164
v -0.77808 0.63400 -0.08551
v -0.56626 0.22000 -0.12947
v -0.56168 0.63400 -0.18930
v -0.41770 0.22000 -0.02784
v -0.36360 0.63400 -0.05379
v -0.58000 1.14000 0.05000
v -0.58000 0.22000 0.05000
v 0.80376 0.22000 0.15725
v 0.86502 0.67900 0.16967
v 0.67962 0.22000 0.29777
v 0.69950 0.67900 0.35702
v 0.49586 0.22000 0.26052
v 0.45448 0.67900 0.30736
v 0.43624 0.22000 0.08275
v 0.37498 0.67900 0.07033
v 0.56038 0.22000 -0.05777
v 0.54050 0.67900 -0.11702
v 0.74414 0.22000 -0.02052
v 0.78552 0.67900 -0.06736
v 0.62000 1.24000 0.12000
v 0.62000 0.22000 0.12000
v 0.01816 0.22000 -0.46159
v 0.06421 0.54400 -0.44212
v -0.10151 0.22000 -0.37114
v -0.09534 0.54400 -0.32153
v -0.23967 0.22000 -0.42956
v -0.27956 0.54400 -0.39941
v -0.25816 0.22000 -0.57841
v -0.30421 0.54400 -0.59788
v -0.13849 0.22000 -0.66886
v -0.14466 0.54400 -0.71847
v -0.00033 0.22000 -0.61044
v 0.03956 0.54400 -0.64059
v -0.12000 0.94000 -0.52000
v -0.12000 0.22000 -0.52000
v -0.14965 0.32000 -0.83360
v 0.18292 0.32000 -0.76291
v 0.18292 0.60000 -0.76291
v -0.14965 0.60000 -0.83360
v -0.18292 0.32000 -0.67709
v 0.14965 0.32000 -0.60640
v 0.14965 0.60000 -0.60640
v -0.18292 0.60000 -0.67709
usemtl mat_rock
f 1 2 3 4
f 5 8 7 6
f 1 5 6 2
f 4 3 7 8
f 1 4 8 5
f 2 6 7 3
f 9 10 11 12
f 13 16 15 14
f 9 13 14 10
f 12 11 15 16
f 9 12 16 13
f 10 14 15 11
f 17 18 19 20
f 21 24 23 22
f 17 21 22 18
f 20 19 23 24
f 17 20 24 21
f 18 22 23 19
usemtl mat_gray
f 25 26 27 28
f 29 32 31 30
f 25 29 30 26
f 28 27 31 32
f 25 28 32 29
f 26 30 31 27
usemtl mat_orange
f 33 35 36 34
usemtl mat_yellow
f 34 36 45
usemtl mat_orange
f 46 35 33
f 35 37 38 36
usemtl mat_yellow
f 36 38 45
usemtl mat_orange
f 46 37 35
f 37 39 40 38
usemtl mat_yellow
f 38 40 45
usemtl mat_orange
f 46 39 37
f 39 41 42 40
usemtl mat_yellow
f 40 42 45
usemtl mat_orange
f 46 41 39
f 41 43 44 42
usemtl mat_yellow
f 42 44 45
usemtl mat_orange
f 46 43 41
f 43 33 34 44
usemtl mat_yellow
f 44 34 45
usemtl mat_orange
f 46 33 43
f 47 49 50 48
usemtl mat_yellow
f 48 50 59
usemtl mat_orange
f 60 49 47
f 49 51 52 50
usemtl mat_yellow
f 50 52 59
usemtl mat_orange
f 60 51 49
f 51 53 54 52
usemtl mat_yellow
f 52 54 59
usemtl mat_orange
f 60 53 51
f 53 55 56 54
usemtl mat_yellow
f 54 56 59
usemtl mat_orange
f 60 55 53
f 55 57 58 56
usemtl mat_yellow
f 56 58 59
usemtl mat_orange
f 60 57 55
f 57 47 48 58
usemtl mat_yellow
f 58 48 59
usemtl mat_orange
f 60 47 57
f 61 63 64 62
usemtl mat_yellow
f 62 64 73
usemtl mat_orange
f 74 63 61
f 63 65 66 64
usemtl mat_yellow
f 64 66 73
usemtl mat_orange
f 74 65 63
f 65 67 68 66
usemtl mat_yellow
f 66 68 73
usemtl mat_orange
f 74 67 65
f 67 69 70 68
usemtl mat_yellow
f 68 70 73
usemtl mat_orange
f 74 69 67
f 69 71 72 70
usemtl mat_yellow
f 70 72 73
usemtl mat_orange
f 74 71 69
f 71 61 62 72
usemtl mat_yellow
f 72 62 73
usemtl mat_orange
f 74 61 71
f 75 77 78 76
usemtl mat_yellow
f 76 78 87
usemtl mat_orange
f 88 77 75
f 77 79 80 78
usemtl mat_yellow
f 78 80 87
usemtl mat_orange
f 88 79 77
f 79 81 82 80
usemtl mat_yellow
f 80 82 87
usemtl mat_orange
f 88 81 79
f 81 83 84 82
usemtl mat_yellow
f 82 84 87
usemtl mat_orange
f 88 83 81
f 83 85 86 84
usemtl mat_yellow
f 84 86 87
usemtl mat_orange
f 88 85 83
f 85 75 76 86
usemtl mat_yellow
f 86 76 87
usemtl mat_orange
f 88 75 85
usemtl mat_yellow
f 89 90 91 92
f 93 96 95 94
f 89 93 94 90
f 92 91 95 96
f 89 92 96 93
f 90 94 95 91
